<?xml version="1.0" encoding="utf-8"?>
<!-- Generator: Adobe Illustrator 24.1.0, SVG Export Plug-In . SVG Version: 6.00 Build 0)  -->
<svg version="1.1" id="Layer_1" xmlns="http://www.w3.org/2000/svg" xmlns:xlink="http://www.w3.org/1999/xlink" x="0px" y="0px"
	 viewBox="0 0 510.19 144" style="enable-background:new 0 0 510.19 144;" xml:space="preserve">
<g>
	<path d="M36.4,140.4c0,1.2-6.8,1.8-20.4,1.8c-10.67-0.13-16-0.67-16-1.6V4.4c0-2,6.47-3,19.4-3c11.33,0.4,17,1.07,17,2V140.4z"/>
	<path d="M63.1,130.2C54.76,121,50.6,108.27,50.6,92c0-16.27,4.17-29,12.5-38.2C71.43,44.6,82.66,40,96.8,40
		c14.13,0,25.33,4.6,33.6,13.8c8.27,9.2,12.4,21.93,12.4,38.2c0,16.27-4.13,29-12.4,38.2c-8.27,9.2-19.47,13.8-33.6,13.8
		C82.66,144,71.43,139.4,63.1,130.2z M96.9,73.4c-7.53,0-11.3,6.13-11.3,18.4c0,12.27,3.77,18.4,11.3,18.4
		c7.53,0,11.3-6.13,11.3-18.4C108.2,79.53,104.43,73.4,96.9,73.4z"/>
	<path d="M190.39,140.6c0,1.2-5.57,1.8-16.7,1.8c-11.13,0-16.7-0.93-16.7-2.8V2.6c0-0.93,2.07-1.6,6.2-2c4.13-0.4,7.6-0.6,10.4-0.6
		c11.2,0,16.8,1.2,16.8,3.6v40c7.47-2.27,13.13-3.4,17-3.4c10.13,0,18.13,2.7,24,8.1c5.87,5.4,8.8,15.43,8.8,30.1v62
		c0,1.2-5.2,1.8-15.6,1.8c-11.73-0.4-17.6-1.07-17.6-2V81.4c0-6.53-2.13-9.8-6.4-9.8c-2.93,0-6.33,1.4-10.2,4.2V140.6z"/>
	<path d="M303.19,140.8c0,1.6-5.6,2.4-16.8,2.4c-13.33-0.53-20-1.4-20-2.6V69.8h-10.2c-2.67,0-4-4.6-4-13.8c0-2.4,0.23-5.33,0.7-8.8
		c0.47-3.47,1.43-5.2,2.9-5.2h10.6V24.4c0-2.67,5.63-4,16.9-4c11.27,0,16.9,1.07,16.9,3.2v12.8l0.2,5.6h17c2.27,0,3.4,4.67,3.4,14
		c0,9.33-1.13,14-3.4,14h-14.2V140.8z"/>
	<path d="M343.39,69.4c-3.73-6.67-5.6-12.1-5.6-16.3c0-4.2,1.13-6.9,3.4-8.1c7.6-3.33,18.03-5,31.3-5c13.27,0,22.63,3.1,28.1,9.3
		c5.47,6.2,8.2,15.37,8.2,27.5v31.6h6.8c2.27,0,4.03,1.33,5.3,4c1.27,2.67,1.9,6.33,1.9,11c0,4.67-1.17,9.27-3.5,13.8
		c-2.33,4.54-5.5,6.8-9.5,6.8c-7.2,0-13-1.94-17.4-5.8c-2-1.6-3.53-3.53-4.6-5.8c-6.13,7.73-15.67,11.6-28.6,11.6
		c-9.73,0-17.93-3.47-24.6-10.4c-6.67-6.93-10-15.13-10-24.6c0-21.73,13-32.6,39-32.6h11v-2c0-3.47-0.57-5.7-1.7-6.7
		c-1.13-1-3.77-1.5-7.9-1.5C359.92,66.2,352.72,67.27,343.39,69.4z M359.39,106.2c0,2.93,0.8,5.17,2.4,6.7
		c1.6,1.53,3.63,2.3,6.1,2.3c2.47,0,4.7-1,6.7-3V96.8h-5.6C362.59,96.8,359.39,99.93,359.39,106.2z"/>
	<path d="M438.39,106c10.8,6.53,19.33,9.8,25.6,9.8c4,0,6-1.4,6-4.2c0-2-3.47-4.6-10.4-7.8c-16.67-6.8-25-17.93-25-33.4
		c0-9.87,3.6-17.4,10.8-22.6c7.2-5.2,15.83-7.8,25.9-7.8c10.07,0,18.6,1.07,25.6,3.2c7,2.13,10.5,4.93,10.5,8.4
		c0,2.93-1.43,6.8-4.3,11.6c-2.87,4.8-4.83,7.4-5.9,7.8c-5.73-3.2-11.93-4.8-18.6-4.8c-3.6,0-5.4,1.27-5.4,3.8
		c0,1.6,0.7,2.97,2.1,4.1c1.4,1.13,3.97,2.53,7.7,4.2c3.73,1.67,6.83,3.17,9.3,4.5c2.47,1.33,5.23,3.2,8.3,5.6
		c6.4,5.07,9.6,11.67,9.6,19.8c0,10.67-3.53,19.3-10.6,25.9c-7.07,6.6-17.73,9.9-32,9.9c-9.47,0-18.07-1.6-25.8-4.8
		c-7.73-3.2-11.6-7.6-11.6-13.2c0-3.73,0.9-7.67,2.7-11.8C434.69,110.07,436.52,107.33,438.39,106z"/>
</g>
</svg>
